<?xml version="1.0" encoding="UTF-8" standalone="no"?>
<svg
   xmlns:dc="http://purl.org/dc/elements/1.1/"
   xmlns:cc="http://creativecommons.org/ns#"
   xmlns:rdf="http://www.w3.org/1999/02/22-rdf-syntax-ns#"
   xmlns:svg="http://www.w3.org/2000/svg"
   xmlns="http://www.w3.org/2000/svg"
   xmlns:xlink="http://www.w3.org/1999/xlink"
   xmlns:sodipodi="http://sodipodi.sourceforge.net/DTD/sodipodi-0.dtd"
   xmlns:inkscape="http://www.inkscape.org/namespaces/inkscape"
   sodipodi:docname="logo.svg"
   inkscape:version="1.0 (4035a4fb49, 2020-05-01)"
   id="svg8"
   version="1.1"
   viewBox="0 0 277.96106 363.38327"
   height="363.38327mm"
   width="277.96106mm">
  <defs
     id="defs2">
    <linearGradient
       id="linearGradient879"
       inkscape:collect="always">
      <stop
         id="stop875"
         offset="0"
         style="stop-color:#000000;stop-opacity:1;" />
      <stop
         style="stop-color:#3c3c3c;stop-opacity:1"
         offset="0.5"
         id="stop883" />
      <stop
         id="stop877"
         offset="1"
         style="stop-color:#000000;stop-opacity:1" />
    </linearGradient>
    <linearGradient
       inkscape:collect="always"
       id="linearGradient873">
      <stop
         style="stop-color:#80e4f3;stop-opacity:1"
         offset="0"
         id="stop869" />
      <stop
         style="stop-color:#64a7fe;stop-opacity:1"
         offset="1"
         id="stop871" />
    </linearGradient>
    <linearGradient
       id="linearGradient857"
       inkscape:collect="always">
      <stop
         id="stop853"
         offset="0"
         style="stop-color:#80e4f3;stop-opacity:1" />
      <stop
         id="stop855"
         offset="1"
         style="stop-color:#64a7fe;stop-opacity:0.44347826" />
    </linearGradient>
    <linearGradient
       gradientTransform="translate(289.07555)"
       y2="102.60845"
       x2="58.727139"
       y1="53.965397"
       x1="58.727139"
       gradientUnits="userSpaceOnUse"
       id="linearGradient956"
       xlink:href="#linearGradient879"
       inkscape:collect="always" />
    <linearGradient
       gradientTransform="translate(289.07555)"
       y2="103.14299"
       x2="6.5205665"
       y1="53.430859"
       x1="6.5205665"
       gradientUnits="userSpaceOnUse"
       id="linearGradient958"
       xlink:href="#linearGradient879"
       inkscape:collect="always" />
    <linearGradient
       gradientTransform="translate(289.07555)"
       y2="103.67753"
       x2="-47.383915"
       y1="52.495411"
       x1="-47.383915"
       gradientUnits="userSpaceOnUse"
       id="linearGradient960"
       xlink:href="#linearGradient879"
       inkscape:collect="always" />
    <linearGradient
       gradientTransform="translate(289.07555)"
       y2="279.70239"
       x2="92.226181"
       y1="54.428577"
       x1="-112.63691"
       gradientUnits="userSpaceOnUse"
       id="linearGradient962"
       xlink:href="#linearGradient857"
       inkscape:collect="always" />
    <linearGradient
       gradientTransform="translate(289.07555)"
       y2="2.2678592"
       x2="127.75595"
       y1="398.76486"
       x1="-97.51786"
       gradientUnits="userSpaceOnUse"
       id="linearGradient964"
       xlink:href="#linearGradient873"
       inkscape:collect="always" />
    <filter
       height="1.3242317"
       y="-0.16211584"
       width="1.4707834"
       x="-0.23539171"
       id="filter1164"
       style="color-interpolation-filters:sRGB"
       inkscape:collect="always">
      <feGaussianBlur
         id="feGaussianBlur1166"
         stdDeviation="70.057186"
         inkscape:collect="always" />
    </filter>
    <linearGradient
       inkscape:collect="always"
       xlink:href="#linearGradient873"
       id="linearGradient867"
       x1="-97.51786"
       y1="398.76486"
       x2="127.75595"
       y2="2.2678592"
       gradientUnits="userSpaceOnUse"
       gradientTransform="translate(-48.179258)" />
    <linearGradient
       inkscape:collect="always"
       xlink:href="#linearGradient857"
       id="linearGradient859"
       x1="-112.63691"
       y1="54.428577"
       x2="92.226181"
       y2="279.70239"
       gradientUnits="userSpaceOnUse"
       gradientTransform="translate(-48.179258)" />
    <linearGradient
       inkscape:collect="always"
       xlink:href="#linearGradient879"
       id="linearGradient881"
       x1="-47.383915"
       y1="52.495411"
       x2="-47.383915"
       y2="103.67753"
       gradientUnits="userSpaceOnUse"
       gradientTransform="translate(-48.179258)" />
    <linearGradient
       inkscape:collect="always"
       xlink:href="#linearGradient879"
       id="linearGradient891"
       x1="6.5205665"
       y1="53.430859"
       x2="6.5205665"
       y2="103.14299"
       gradientUnits="userSpaceOnUse"
       gradientTransform="translate(-48.179258)" />
    <linearGradient
       inkscape:collect="always"
       xlink:href="#linearGradient879"
       id="linearGradient899"
       x1="58.727139"
       y1="53.965397"
       x2="58.727139"
       y2="102.60845"
       gradientUnits="userSpaceOnUse"
       gradientTransform="translate(-48.179258)" />
  </defs>
  <sodipodi:namedview
     showborder="false"
     inkscape:showpageshadow="false"
     showgrid="false"
     inkscape:document-rotation="0"
     inkscape:current-layer="layer1"
     inkscape:document-units="mm"
     inkscape:cy="726.82134"
     inkscape:cx="-608.01577"
     inkscape:zoom="0.23299072"
     inkscape:pageshadow="2"
     inkscape:pageopacity="0.0"
     borderopacity="1.0"
     bordercolor="#666666"
     pagecolor="#ffffff"
     id="base" />
  <metadata
     id="metadata5">
    <rdf:RDF>
      <cc:Work
         rdf:about="">
        <dc:format>image/svg+xml</dc:format>
        <dc:type
           rdf:resource="http://purl.org/dc/dcmitype/StillImage" />
        <dc:title></dc:title>
      </cc:Work>
    </rdf:RDF>
  </metadata>
  <g
     transform="translate(-153.8747,-8.4303536)"
     id="layer1"
     inkscape:groupmode="layer"
     inkscape:label="Layer 1">
    <g
       inkscape:export-ydpi="96"
       inkscape:export-xdpi="96"
       id="g1279">
      <path
         id="path966"
         style="opacity:0.765217;fill:#000000;fill-opacity:1;stroke:none;stroke-width:19.8841;stroke-linecap:square;filter:url(#filter1164);stop-color:#000000"
         d="m 912.56836,200 c -22.16001,0 -40,17.84 -40,40 v 57.14258 h -52.13672 c -39.17919,0 -70.7207,31.54151 -70.7207,70.7207 v 687.13082 111.4278 c 0,39.1792 31.54151,70.7207 70.7207,70.7207 h 572.84566 c 39.1792,0 70.7207,-31.5415 70.7207,-70.7207 V 1054.9941 367.86328 c 0,-39.17919 -31.5415,-70.7207 -70.7207,-70.7207 h -46.4218 V 240 c 0,-22.16 -17.84,-40 -40,-40 -22.16,0 -40,17.84 -40,40 v 57.14258 H 1152.5684 V 240 c 0,-22.16 -17.8401,-40 -40,-40 -22.1601,0 -40,17.84 -40,40 v 57.14258 H 952.56836 V 240 c 0,-22.16 -17.83999,-40 -40,-40 z"
         transform="scale(0.26458333)" />
      <path
         sodipodi:nodetypes="sssssssss"
         d="m 217.07275,78.619049 h 151.56512 c 10.36616,0 18.71148,8.345321 18.71148,18.711483 V 308.61589 c 0,10.36617 -8.34532,18.71149 -18.71148,18.71149 H 217.07275 c -10.36616,0 -18.71149,-8.34532 -18.71149,-18.71149 V 97.330532 c 0,-10.366162 8.34533,-18.711483 18.71149,-18.711483 z"
         style="fill:url(#linearGradient964);fill-opacity:1;stroke:none;stroke-width:5.261;stroke-linecap:square;stop-color:#000000"
         id="path938" />
      <path
         id="path940"
         style="fill:url(#linearGradient962);fill-opacity:1;stroke:none;stroke-width:5.261;stroke-linecap:square;stop-color:#000000"
         d="m 217.07275,78.619049 h 151.56512 c 10.36616,0 18.71148,8.345321 18.71148,18.711483 V 279.13375 c 0,10.36617 -8.34532,18.71149 -18.71148,18.71149 H 217.07275 c -10.36616,0 -18.71149,-8.34532 -18.71149,-18.71149 V 97.330532 c 0,-10.366162 8.34533,-18.711483 18.71149,-18.711483 z"
         sodipodi:nodetypes="sssssssss" />
      <path
         sodipodi:nodetypes="sssssss"
         d="m 237.26847,128.36076 h 113.81952 c 4.34869,0 7.84962,3.50092 7.84962,7.84962 0,4.3487 -3.50093,7.84962 -7.84962,7.84962 H 237.26847 c -4.34869,0 -7.84962,-3.50092 -7.84962,-7.84962 0,-4.3487 3.50093,-7.84962 7.84962,-7.84962 z"
         style="fill:#ffffff;fill-opacity:1;stroke:none;stroke-width:3.90206;stroke-linecap:square;stop-color:#000000"
         id="path942" />
      <path
         id="path944"
         style="fill:#ffffff;fill-opacity:1;stroke:none;stroke-width:3.90206;stroke-linecap:square;stop-color:#000000"
         d="m 237.26847,164.04087 h 113.81952 c 4.34869,0 7.84962,3.50092 7.84962,7.84962 0,4.34869 -3.50093,7.84961 -7.84962,7.84961 H 237.26847 c -4.34869,0 -7.84962,-3.50092 -7.84962,-7.84961 0,-4.3487 3.50093,-7.84962 7.84962,-7.84962 z"
         sodipodi:nodetypes="sssssss" />
      <path
         sodipodi:nodetypes="sssssss"
         d="m 237.26847,201.14817 h 113.81952 c 4.34869,0 7.84962,3.50092 7.84962,7.84962 0,4.3487 -3.50093,7.84962 -7.84962,7.84962 H 237.26847 c -4.34869,0 -7.84962,-3.50092 -7.84962,-7.84962 0,-4.3487 3.50093,-7.84962 7.84962,-7.84962 z"
         style="fill:#ffffff;fill-opacity:1;stroke:none;stroke-width:3.90206;stroke-linecap:square;stop-color:#000000"
         id="path946" />
      <path
         id="path948"
         style="fill:#ffffff;fill-opacity:1;stroke:none;stroke-width:3.90206;stroke-linecap:square;stop-color:#000000"
         d="m 237.26847,240.03948 h 74.92821 c 4.34869,0 7.84962,3.50092 7.84962,7.84962 0,4.3487 -3.50093,7.84962 -7.84962,7.84962 h -74.92821 c -4.34869,0 -7.84962,-3.50092 -7.84962,-7.84962 0,-4.3487 3.50093,-7.84962 7.84962,-7.84962 z"
         sodipodi:nodetypes="sssssss" />
      <rect
         ry="10.583333"
         y="52.916664"
         x="230.86722"
         height="49.136902"
         width="21.166666"
         id="rect950"
         style="fill:url(#linearGradient960);fill-opacity:1;stroke:none;stroke-width:5.261;stroke-linecap:square;stop-color:#000000" />
      <rect
         style="fill:url(#linearGradient958);fill-opacity:1;stroke:none;stroke-width:5.261;stroke-linecap:square;stop-color:#000000"
         id="rect952"
         width="21.166666"
         height="49.136902"
         x="283.78387"
         y="52.916664"
         ry="10.583333" />
      <rect
         ry="10.583333"
         y="52.916664"
         x="335.18866"
         height="49.136902"
         width="21.166666"
         id="rect954"
         style="fill:url(#linearGradient956);fill-opacity:1;stroke:none;stroke-width:5.261;stroke-linecap:square;stop-color:#000000" />
    </g>
    <g
       inkscape:export-ydpi="96"
       inkscape:export-xdpi="96"
       transform="translate(-204.86238,-44.284555)"
       id="g1110">
      <path
         sodipodi:nodetypes="sssssssss"
         d="M -120.18206,78.619049 H 31.383061 c 10.366162,0 18.711483,8.345321 18.711483,18.711483 V 308.61589 c 0,10.36617 -8.345321,18.71149 -18.711483,18.71149 H -120.18206 c -10.36616,0 -18.71149,-8.34532 -18.71149,-18.71149 V 97.330532 c 0,-10.366162 8.34533,-18.711483 18.71149,-18.711483 z"
         style="fill:url(#linearGradient867);fill-opacity:1;stroke:none;stroke-width:5.261;stroke-linecap:square;stop-color:#000000"
         id="rect833" />
      <path
         id="path836"
         style="fill:url(#linearGradient859);fill-opacity:1;stroke:none;stroke-width:5.261;stroke-linecap:square;stop-color:#000000"
         d="M -120.18206,78.619049 H 31.383061 c 10.366162,0 18.711483,8.345321 18.711483,18.711483 V 279.13375 c 0,10.36617 -8.345321,18.71149 -18.711483,18.71149 H -120.18206 c -10.36616,0 -18.71149,-8.34532 -18.71149,-18.71149 V 97.330532 c 0,-10.366162 8.34533,-18.711483 18.71149,-18.711483 z"
         sodipodi:nodetypes="sssssssss" />
      <path
         sodipodi:nodetypes="sssssss"
         d="M -99.98634,128.36076 H 13.833184 c 4.348691,0 7.849622,3.50092 7.849622,7.84962 0,4.3487 -3.500931,7.84962 -7.849622,7.84962 H -99.98634 c -4.34869,0 -7.84962,-3.50092 -7.84962,-7.84962 0,-4.3487 3.50093,-7.84962 7.84962,-7.84962 z"
         style="fill:#ffffff;fill-opacity:1;stroke:none;stroke-width:3.90206;stroke-linecap:square;stop-color:#000000"
         id="rect838" />
      <path
         id="path841"
         style="fill:#ffffff;fill-opacity:1;stroke:none;stroke-width:3.90206;stroke-linecap:square;stop-color:#000000"
         d="M -99.98634,164.04087 H 13.833184 c 4.348691,0 7.849622,3.50092 7.849622,7.84962 0,4.34869 -3.500931,7.84961 -7.849622,7.84961 H -99.98634 c -4.34869,0 -7.84962,-3.50092 -7.84962,-7.84961 0,-4.3487 3.50093,-7.84962 7.84962,-7.84962 z"
         sodipodi:nodetypes="sssssss" />
      <path
         sodipodi:nodetypes="sssssss"
         d="M -99.98634,201.14817 H 13.833184 c 4.348691,0 7.849622,3.50092 7.849622,7.84962 0,4.3487 -3.500931,7.84962 -7.849622,7.84962 H -99.98634 c -4.34869,0 -7.84962,-3.50092 -7.84962,-7.84962 0,-4.3487 3.50093,-7.84962 7.84962,-7.84962 z"
         style="fill:#ffffff;fill-opacity:1;stroke:none;stroke-width:3.90206;stroke-linecap:square;stop-color:#000000"
         id="path843" />
      <path
         id="path845"
         style="fill:#ffffff;fill-opacity:1;stroke:none;stroke-width:3.90206;stroke-linecap:square;stop-color:#000000"
         d="m -99.98634,240.03948 h 74.928209 c 4.348691,0 7.849622,3.50092 7.849622,7.84962 0,4.3487 -3.500931,7.84962 -7.849622,7.84962 H -99.98634 c -4.34869,0 -7.84962,-3.50092 -7.84962,-7.84962 0,-4.3487 3.50093,-7.84962 7.84962,-7.84962 z"
         sodipodi:nodetypes="sssssss" />
      <path
         d="m -95.804255,52.916664 c 5.863166,0 10.583333,4.720167 10.583333,10.583333 v 27.970236 c 0,5.863166 -4.720167,10.583337 -10.583333,10.583337 -5.863165,0 -10.583335,-4.720171 -10.583335,-10.583337 V 63.499997 c 0,-5.863166 4.72017,-10.583333 10.583335,-10.583333 z"
         style="fill:url(#linearGradient881);fill-opacity:1;stroke:none;stroke-width:5.261;stroke-linecap:square;stop-color:#000000"
         id="rect847" />
      <path
         d="m -42.887591,52.916664 c 5.863166,0 10.583333,4.720167 10.583333,10.583333 v 27.970236 c 0,5.863166 -4.720167,10.583337 -10.583333,10.583337 -5.863167,0 -10.583333,-4.720171 -10.583333,-10.583337 V 63.499997 c 0,-5.863166 4.720166,-10.583333 10.583333,-10.583333 z"
         style="fill:url(#linearGradient891);fill-opacity:1;stroke:none;stroke-width:5.261;stroke-linecap:square;stop-color:#000000"
         id="rect849" />
      <path
         d="m 8.5171728,52.916664 c 5.8631662,0 10.5833332,4.720167 10.5833332,10.583333 v 27.970236 c 0,5.863166 -4.720167,10.583337 -10.5833332,10.583337 -5.8631665,0 -10.583333,-4.720171 -10.583333,-10.583337 V 63.499997 c 0,-5.863166 4.7201665,-10.583333 10.583333,-10.583333 z"
         style="fill:url(#linearGradient899);fill-opacity:1;stroke:none;stroke-width:5.261;stroke-linecap:square;stop-color:#000000"
         id="rect851" />
    </g>
  </g>
</svg>
