<?xml version="1.0" encoding="UTF-8" standalone="no"?>
<svg
   xmlns:dc="http://purl.org/dc/elements/1.1/"
   xmlns:cc="http://creativecommons.org/ns#"
   xmlns:rdf="http://www.w3.org/1999/02/22-rdf-syntax-ns#"
   xmlns:svg="http://www.w3.org/2000/svg"
   xmlns="http://www.w3.org/2000/svg"
   xmlns:sodipodi="http://sodipodi.sourceforge.net/DTD/sodipodi-0.dtd"
   xmlns:inkscape="http://www.inkscape.org/namespaces/inkscape"
   sodipodi:docname="iconset.svg"
   inkscape:version="1.0 (4035a4fb49, 2020-05-01)"
   id="svg8"
   version="1.1"
   viewBox="0 0 1881.0403 1224.3639"
   height="1224.3639mm"
   width="1881.0403mm">
  <defs
     id="defs2" />
  <sodipodi:namedview
     showborder="false"
     inkscape:showpageshadow="false"
     showgrid="false"
     inkscape:document-rotation="0"
     inkscape:current-layer="layer1"
     inkscape:document-units="mm"
     inkscape:cy="2443.3701"
     inkscape:cx="7383.72"
     inkscape:zoom="0.10193032"
     inkscape:pageshadow="2"
     inkscape:pageopacity="0.0"
     borderopacity="1.0"
     bordercolor="#666666"
     pagecolor="#ffffff"
     id="base" />
  <metadata
     id="metadata5">
    <rdf:RDF>
      <cc:Work
         rdf:about="">
        <dc:format>image/svg+xml</dc:format>
        <dc:type
           rdf:resource="http://purl.org/dc/dcmitype/StillImage" />
        <dc:title />
      </cc:Work>
    </rdf:RDF>
  </metadata>
  <g
     id="layer1"
     inkscape:groupmode="layer"
     inkscape:label="Layer 1"
     transform="translate(217.34192,-7.6067095)">
    <rect
       style="opacity:1;fill:none;fill-opacity:1;stroke-width:5.28683;stroke-linecap:square;stop-color:#000000"
       id="rect989"
       width="1881.0403"
       height="1224.3639"
       x="-217.34192"
       y="7.6067095"
       ry="12.076857" />
    <g
       id="g1115"
       inkscape:export-xdpi="96"
       inkscape:export-ydpi="96">
      <rect
         style="opacity:0.165217;fill:#000000;fill-opacity:1;stroke-width:11.2551;stroke-linecap:square;stop-color:#000000"
         id="rect847"
         width="239.9073"
         height="239.9073"
         x="-171.3132"
         y="50.566853"
         ry="20.299047" />
      <text
         xml:space="preserve"
         style="font-style:normal;font-variant:normal;font-weight:normal;font-stretch:normal;font-size:302.968px;line-height:1.25;font-family:'Segoe UI';-inkscape-font-specification:'Segoe UI';stroke-width:7.57421"
         x="-155.20903"
         y="258.83694"
         id="text835"><tspan
           sodipodi:role="line"
           id="tspan833"
           x="-155.20903"
           y="258.83694"
           style="font-style:normal;font-variant:normal;font-weight:normal;font-stretch:normal;font-family:'Segoe UI';-inkscape-font-specification:'Segoe UI';stroke-width:7.57421">+</tspan></text>
    </g>
    <g
       transform="translate(-0.49874576)"
       id="g1119"
       inkscape:export-xdpi="96"
       inkscape:export-ydpi="96">
      <rect
         ry="20.299049"
         y="50.566845"
         x="141.37811"
         height="239.9073"
         width="239.9073"
         id="rect855"
         style="opacity:0.165217;fill:#000000;fill-opacity:1;stroke-width:11.2551;stroke-linecap:square;stop-color:#000000" />
      <path
         style="fill:#000000;stroke-width:7.72543"
         d="m 299.95885,100.99172 h -92.70504 c -8.57522,0 -15.45084,6.95287 -15.45084,15.45083 v 108.15589 c 0,8.49797 6.87562,15.45084 15.45084,15.45084 h 108.15588 c 8.49798,0 15.45086,-6.95287 15.45086,-15.45084 v -92.70505 z m -38.62709,123.60672 c -12.8242,0 -23.17627,-10.35205 -23.17627,-23.17626 0,-12.8242 10.35207,-23.17626 23.17627,-23.17626 12.82419,0 23.17625,10.35206 23.17625,23.17626 0,12.82421 -10.35206,23.17626 -23.17625,23.17626 z m 23.17625,-77.25421 h -77.2542 v -30.90168 h 77.2542 z"
         id="path863" />
    </g>
    <g
       transform="translate(6.7395111)"
       id="g1123"
       inkscape:export-xdpi="96"
       inkscape:export-ydpi="96">
      <rect
         style="opacity:0.165217;fill:#000000;fill-opacity:1;stroke-width:11.2551;stroke-linecap:square;stop-color:#000000"
         id="rect917"
         width="239.9073"
         height="239.9073"
         x="446.33243"
         y="50.566845"
         ry="20.299049" />
      <path
         style="fill:#000000;stroke-width:7.72542"
         d="M 620.36403,224.59844 H 512.20813 V 116.44257 h 54.07795 v -15.45085 h -54.07795 c -8.57522,0 -15.45085,6.95288 -15.45085,15.45085 v 108.15587 c 0,8.49797 6.87563,15.45084 15.45085,15.45084 h 108.1559 c 8.49797,0 15.45085,-6.95287 15.45085,-15.45084 V 170.5205 H 620.36403 Z M 581.73692,100.99172 v 15.45085 h 27.73427 l -75.9409,75.94087 10.89285,10.89284 75.94089,-75.94088 v 27.73426 h 15.45085 v -54.07794 z"
         id="path923" />
    </g>
    <g
       transform="translate(11.164902)"
       id="g1127"
       inkscape:export-xdpi="96"
       inkscape:export-ydpi="96">
      <rect
         ry="20.299047"
         y="50.566853"
         x="754.09961"
         height="239.9073"
         width="239.9073"
         id="rect953"
         style="opacity:0.165217;fill:#000000;fill-opacity:1;stroke-width:11.2551;stroke-linecap:square;stop-color:#000000" />
      <path
         style="fill:#000000;stroke-width:7.72542"
         d="M 804.52448,216.87303 H 943.58205 V 201.42219 H 804.52448 Z m 0,-38.62711 H 943.58205 V 162.79509 H 804.52448 Z m 0,-54.07794 v 15.45084 h 139.05757 v -15.45084 z"
         id="path969" />
    </g>
    <g
       transform="translate(10.666067)"
       id="g958"
       inkscape:export-xdpi="96"
       inkscape:export-ydpi="96">
      <rect
         style="opacity:1;fill:#e81123;fill-opacity:1;stroke-width:11.2551;stroke-linecap:square;stop-color:#000000"
         id="rect959"
         width="239.9073"
         height="239.9073"
         x="1066.791"
         y="50.566845"
         ry="20.299049" />
      <path
         style="fill:#000000;stroke-width:9.93269"
         d="m 1256.2734,114.9968 -14.0051,-14.00508 -55.5237,55.5237 -55.5237,-55.5237 -14.005,14.00508 55.5236,55.5237 -55.5236,55.5237 14.005,14.00508 55.5237,-55.5237 55.5237,55.5237 14.0051,-14.00508 -55.5237,-55.5237 z"
         id="path1015" />
    </g>
    <g
       style="fill:#ffffff"
       id="g985"
       inkscape:export-xdpi="96"
       inkscape:export-ydpi="96">
      <rect
         ry="20.299047"
         y="335.44748"
         x="-171.3132"
         height="239.9073"
         width="239.9073"
         id="rect1133"
         style="opacity:0.165217;fill:#ffffff;fill-opacity:1;stroke-width:11.2551;stroke-linecap:square;stop-color:#000000" />
      <path
         inkscape:export-ydpi="96"
         inkscape:export-xdpi="96"
         style="fill:#ffffff;stroke-width:9.93266"
         d="m -19.326653,453.31527 c 9.6347,-6.6549 16.38893,-17.58085 16.38893,-27.71219 0,-22.44786 -17.38219,-39.73073 -39.73073,-39.73073 h -62.079267 v 139.05756 h 69.926087 c 20.75931,0 36.85025,-16.88556 36.85025,-37.64487 0,-15.09768 -8.54211,-28.01016 -21.35527,-33.96977 z m -55.623015,-42.61121 h 29.798045 c 8.24413,0 14.89902,6.65489 14.89902,14.89902 0,8.24413 -6.65489,14.89902 -14.89902,14.89902 h -29.798045 z m 34.764385,89.39414 h -34.764385 v -29.79804 h 34.764385 c 8.24412,0 14.89903,6.65489 14.89903,14.89902 0,8.24413 -6.65491,14.89902 -14.89903,14.89902 z"
         id="path1167" />
    </g>
    <g
       style="fill:#ffffff"
       id="g962"
       inkscape:export-xdpi="96"
       inkscape:export-ydpi="96"
       transform="translate(2.7318265)">
      <rect
         style="opacity:0.165217;fill:#ffffff;fill-opacity:1;stroke-width:11.2551;stroke-linecap:square;stop-color:#000000"
         id="rect1141"
         width="239.9073"
         height="239.9073"
         x="138.21281"
         y="335.44748"
         ry="20.299049" />
      <path
         style="fill:#ffffff;stroke-width:9.93271"
         d="m 238.3011,385.87235 v 29.79805 h 21.95123 l -33.96978,79.46147 h -27.71219 v 29.79805 h 79.46147 V 495.13187 H 256.0806 l 33.96978,-79.46147 h 27.71219 v -29.79805 z"
         id="path1225" />
    </g>
    <g
       style="fill:#ffffff"
       id="g966"
       inkscape:export-xdpi="96"
       inkscape:export-ydpi="96"
       transform="translate(5.4635915)">
      <rect
         ry="20.299049"
         y="335.44748"
         x="447.73883"
         height="239.9073"
         width="239.9073"
         id="rect1147"
         style="opacity:0.165217;fill:#ffffff;fill-opacity:1;stroke-width:11.2551;stroke-linecap:square;stop-color:#000000" />
      <path
         style="fill:#ffffff;stroke-width:7.99629"
         d="m 567.69248,498.79616 c 26.46772,0 47.97773,-21.51002 47.97773,-47.97771 V 386.84813 H 595.6795 v 63.97032 c 0,15.43283 -12.55419,27.98699 -27.98702,27.98699 -15.43283,0 -27.98701,-12.55416 -27.98701,-27.98699 v -63.97032 h -19.99071 v 63.97032 c 0,26.46769 21.51001,47.97771 47.97772,47.97771 z m -55.97402,15.99258 v 15.99258 h 111.94805 v -15.99258 z"
         id="path1265" />
    </g>
    <g
       style="fill:#ffffff"
       id="g973"
       inkscape:export-xdpi="96"
       inkscape:export-ydpi="96"
       transform="translate(8.195343)">
      <rect
         style="opacity:0.165217;fill:#ffffff;fill-opacity:1;stroke-width:11.2551;stroke-linecap:square;stop-color:#000000"
         id="rect1153"
         width="239.9073"
         height="239.9073"
         x="757.26489"
         y="335.44748"
         ry="20.299047" />
      <g
         style="fill:#ffffff"
         id="g1305"
         transform="matrix(9.2643281,0,0,9.2643281,766.04661,358.07936)">
        <g
           style="fill:#ffffff"
           id="g1303">
          <g
             style="fill:#ffffff"
             id="g1301">
            <path
               style="fill:#ffffff"
               d="M 6.85,7.08 C 6.85,4.37 9.45,3 12.24,3 c 1.64,0 3,0.49 3.9,1.28 0.77,0.65 1.46,1.73 1.46,3.24 h -3.01 c 0,-0.31 -0.05,-0.59 -0.15,-0.85 -0.29,-0.86 -1.2,-1.28 -2.25,-1.28 -1.86,0 -2.34,1.02 -2.34,1.7 0,0.48 0.25,0.88 0.74,1.21 C 10.97,8.55 11.36,8.78 12,9 H 7.39 C 7.18,8.66 6.85,8.11 6.85,7.08 Z M 21,12 V 10 H 3 v 2 h 9.62 c 1.15,0.45 1.96,0.75 1.96,1.97 0,1 -0.81,1.67 -2.28,1.67 -1.54,0 -2.93,-0.54 -2.93,-2.51 H 6.4 c 0,0.55 0.08,1.13 0.24,1.58 0.81,2.29 3.29,3.3 5.67,3.3 2.27,0 5.3,-0.89 5.3,-4.05 0,-0.3 -0.01,-1.16 -0.48,-1.94 H 21 Z"
               id="path1299" />
          </g>
        </g>
      </g>
    </g>
    <g
       style="fill:#ffffff"
       id="g977"
       inkscape:export-xdpi="96"
       inkscape:export-ydpi="96"
       transform="translate(10.927033)">
      <rect
         ry="20.299049"
         y="335.44748"
         x="1066.791"
         height="239.9073"
         width="239.9073"
         id="rect1159"
         style="opacity:0.165217;fill:#ffffff;fill-opacity:1;stroke-width:11.2551;stroke-linecap:square;stop-color:#000000" />
      <path
         style="fill:#ffffff;stroke-width:9.27051"
         d="m 1114.8983,441.49538 c -7.6945,0 -13.9058,6.21124 -13.9058,13.90576 0,7.69451 6.2113,13.90575 13.9058,13.90575 7.6945,0 13.9057,-6.21124 13.9057,-13.90575 0,-7.69452 -6.2112,-13.90576 -13.9057,-13.90576 z m 0,-55.62303 c -7.6945,0 -13.9058,6.21124 -13.9058,13.90576 0,7.69452 6.2113,13.90575 13.9058,13.90575 7.6945,0 13.9057,-6.21123 13.9057,-13.90575 0,-7.69452 -6.2112,-13.90576 -13.9057,-13.90576 z m 0,111.24606 c -7.6945,0 -13.9058,6.30394 -13.9058,13.90575 0,7.60181 6.3039,13.90576 13.9058,13.90576 7.6018,0 13.9057,-6.30395 13.9057,-13.90576 0,-7.60181 -6.2112,-13.90575 -13.9057,-13.90575 z m 27.8115,23.17626 h 129.787 v -18.54101 h -129.787 z m 0,-55.62303 h 129.787 v -18.54101 h -129.787 z m 0,-74.16403 v 18.54101 h 129.787 v -18.54101 z"
         id="path1393" />
    </g>
    <g
       style="fill:#ffffff"
       id="g981"
       inkscape:export-xdpi="96"
       inkscape:export-ydpi="96"
       transform="translate(16.928866)">
      <rect
         style="opacity:0.165217;fill:#ffffff;fill-opacity:1;stroke-width:11.2551;stroke-linecap:square;stop-color:#000000"
         id="rect1425"
         width="239.9073"
         height="239.9073"
         x="1373.047"
         y="335.44748"
         ry="20.299049" />
      <path
         style="fill:#ffffff;stroke-width:8.57527"
         d="m 1470.705,494.84712 -39.446,-39.44599 39.446,-39.44599 -12.0052,-12.0053 -51.4513,51.45129 51.4513,51.45129 z m 44.5912,0 39.446,-39.44599 -39.446,-39.44599 12.0052,-12.0053 51.4513,51.45129 -51.4513,51.45129 z"
         id="path1431" />
    </g>
    <g
       id="g903"
       inkscape:export-xdpi="96"
       inkscape:export-ydpi="96"
       style="fill:#000000">
      <rect
         ry="20.299047"
         y="658.40637"
         x="-171.3132"
         height="239.9073"
         width="239.9073"
         id="rect1475"
         style="opacity:0.0492754;fill:#000000;fill-opacity:1;stroke-width:11.2551;stroke-linecap:square;stop-color:#000000" />
      <text
         id="text1479"
         y="866.67651"
         x="-155.20903"
         style="font-style:normal;font-variant:normal;font-weight:normal;font-stretch:normal;font-size:302.968px;line-height:1.25;font-family:'Segoe UI';-inkscape-font-specification:'Segoe UI';fill:#000000;stroke-width:7.57421"
         xml:space="preserve"><tspan
           style="font-style:normal;font-variant:normal;font-weight:normal;font-stretch:normal;font-family:'Segoe UI';-inkscape-font-specification:'Segoe UI';fill:#000000;stroke-width:7.57421"
           y="866.67651"
           x="-155.20903"
           id="tspan1477"
           sodipodi:role="line">+</tspan></text>
    </g>
    <g
       transform="translate(2.4807113)"
       id="g907"
       inkscape:export-xdpi="96"
       inkscape:export-ydpi="96"
       style="fill:#000000">
      <rect
         style="opacity:0.0492754;fill:#000000;fill-opacity:1;stroke-width:11.2551;stroke-linecap:square;stop-color:#000000"
         id="rect1483"
         width="239.9073"
         height="239.9073"
         x="138.21281"
         y="658.40637"
         ry="20.299049" />
      <path
         id="path1485"
         d="m 296.79355,708.83127 h -92.70504 c -8.57522,0 -15.45084,6.95287 -15.45084,15.45083 v 108.15589 c 0,8.49797 6.87562,15.45084 15.45084,15.45084 h 108.15588 c 8.49798,0 15.45086,-6.95287 15.45086,-15.45084 v -92.70505 z m -38.62709,123.60672 c -12.8242,0 -23.17627,-10.35205 -23.17627,-23.17626 0,-12.8242 10.35207,-23.17626 23.17627,-23.17626 12.82419,0 23.17625,10.35206 23.17625,23.17626 0,12.82421 -10.35206,23.17626 -23.17625,23.17626 z m 23.17625,-77.25421 h -77.2542 V 724.2821 h 77.2542 z"
         style="fill:#000000;stroke-width:7.72543" />
    </g>
    <g
       transform="translate(4.9614257)"
       id="g911"
       inkscape:export-xdpi="96"
       inkscape:export-ydpi="96"
       style="fill:#000000">
      <rect
         ry="20.299049"
         y="658.40637"
         x="447.73883"
         height="239.9073"
         width="239.9073"
         id="rect1489"
         style="opacity:0.0492754;fill:#000000;fill-opacity:1;stroke-width:11.2551;stroke-linecap:square;stop-color:#000000" />
      <path
         id="path1491"
         d="M 621.77042,832.43799 H 513.61452 V 724.28212 h 54.07795 v -15.45085 h -54.07795 c -8.57522,0 -15.45085,6.95288 -15.45085,15.45085 v 108.15587 c 0,8.49797 6.87563,15.45084 15.45085,15.45084 h 108.1559 c 8.49797,0 15.45085,-6.95287 15.45085,-15.45084 V 778.36005 H 621.77042 Z M 583.14331,708.83127 v 15.45085 h 27.73427 l -75.9409,75.94087 10.89285,10.89284 75.94089,-75.94088 v 27.73426 h 15.45085 v -54.07794 z"
         style="fill:#000000;stroke-width:7.72542" />
    </g>
    <g
       transform="translate(7.4420944)"
       id="g915"
       inkscape:export-xdpi="96"
       inkscape:export-ydpi="96"
       style="fill:#000000">
      <rect
         style="opacity:0.0492754;fill:#000000;fill-opacity:1;stroke-width:11.2551;stroke-linecap:square;stop-color:#000000"
         id="rect1495"
         width="239.9073"
         height="239.9073"
         x="757.26489"
         y="658.40637"
         ry="20.299047" />
      <path
         id="path1497"
         d="M 807.68976,824.71258 H 946.74733 V 809.26174 H 807.68976 Z m 0,-38.62711 H 946.74733 V 770.63464 H 807.68976 Z m 0,-54.07794 v 15.45084 h 139.05757 v -15.45084 z"
         style="fill:#000000;stroke-width:7.72542" />
    </g>
    <g
       transform="translate(9.9225728)"
       id="g952"
       inkscape:export-xdpi="96"
       inkscape:export-ydpi="96"
       style="fill:#000000">
      <rect
         ry="20.299049"
         y="658.40637"
         x="1066.791"
         height="239.9073"
         width="239.9073"
         id="rect1501"
         style="opacity:0.0492754;fill:#000000;fill-opacity:1;stroke-width:11.2551;stroke-linecap:square;stop-color:#000000" />
      <path
         id="path1503"
         d="m 1256.2734,722.83635 -14.0051,-14.00508 -55.5237,55.5237 -55.5237,-55.5237 -14.005,14.00508 55.5236,55.5237 -55.5236,55.5237 14.005,14.00508 55.5237,-55.5237 55.5237,55.5237 14.0051,-14.00508 -55.5237,-55.5237 z"
         style="fill:#000000;stroke-width:9.93269" />
    </g>
    <g
       style="fill:#ffffff"
       id="g923"
       inkscape:export-xdpi="96"
       inkscape:export-ydpi="96">
      <rect
         style="opacity:0.0492754;fill:#ffffff;fill-opacity:1;stroke-width:11.2551;stroke-linecap:square;stop-color:#000000"
         id="rect1507"
         width="239.9073"
         height="239.9073"
         x="-171.3132"
         y="943.28705"
         ry="20.299047" />
      <path
         id="path1517"
         d="m -19.326653,1061.1548 c 9.6347,-6.6549 16.38893,-17.5808 16.38893,-27.7122 0,-22.4478 -17.38219,-39.7307 -39.73073,-39.7307 h -62.079267 v 139.0576 h 69.926087 c 20.75931,0 36.85025,-16.8856 36.85025,-37.6449 0,-15.0977 -8.54211,-28.0102 -21.35527,-33.9698 z m -55.623015,-42.6112 h 29.798045 c 8.24413,0 14.89902,6.6549 14.89902,14.899 0,8.2442 -6.65489,14.899 -14.89902,14.899 h -29.798045 z m 34.764385,89.3941 h -34.764385 v -29.798 h 34.764385 c 8.24412,0 14.89903,6.6549 14.89903,14.899 0,8.2442 -6.65491,14.899 -14.89903,14.899 z"
         style="fill:#ffffff;stroke-width:9.93266" />
    </g>
    <g
       style="fill:#ffffff"
       id="g927"
       inkscape:export-xdpi="96"
       inkscape:export-ydpi="96"
       transform="translate(2.7318265)">
      <rect
         ry="20.299049"
         y="943.28705"
         x="138.21281"
         height="239.9073"
         width="239.9073"
         id="rect1509"
         style="opacity:0.0492754;fill:#ffffff;fill-opacity:1;stroke-width:11.2551;stroke-linecap:square;stop-color:#000000" />
      <path
         id="path1519"
         d="m 238.3011,993.7119 v 29.798 h 21.95123 l -33.96978,79.4615 h -27.71219 v 29.7981 h 79.46147 v -29.7981 H 256.0806 l 33.96978,-79.4615 h 27.71219 v -29.798 z"
         style="fill:#ffffff;stroke-width:9.93271" />
    </g>
    <g
       style="fill:#ffffff"
       id="g931"
       inkscape:export-xdpi="96"
       inkscape:export-ydpi="96"
       transform="translate(5.4635915)">
      <rect
         style="opacity:0.0492754;fill:#ffffff;fill-opacity:1;stroke-width:11.2551;stroke-linecap:square;stop-color:#000000"
         id="rect1511"
         width="239.9073"
         height="239.9073"
         x="447.73883"
         y="943.28705"
         ry="20.299049" />
      <path
         id="path1521"
         d="m 567.69248,1106.6357 c 26.46772,0 47.97773,-21.51 47.97773,-47.9777 V 994.68768 H 595.6795 v 63.97032 c 0,15.4328 -12.55419,27.987 -27.98702,27.987 -15.43283,0 -27.98701,-12.5542 -27.98701,-27.987 v -63.97032 h -19.99071 v 63.97032 c 0,26.4677 21.51001,47.9777 47.97772,47.9777 z m -55.97402,15.9926 v 15.9926 h 111.94805 v -15.9926 z"
         style="fill:#ffffff;stroke-width:7.99629" />
    </g>
    <g
       style="fill:#ffffff"
       id="g938"
       inkscape:export-xdpi="96"
       inkscape:export-ydpi="96"
       transform="translate(8.195343)">
      <rect
         ry="20.299047"
         y="943.28705"
         x="757.26489"
         height="239.9073"
         width="239.9073"
         id="rect1513"
         style="opacity:0.0492754;fill:#ffffff;fill-opacity:1;stroke-width:11.2551;stroke-linecap:square;stop-color:#000000" />
      <g
         transform="matrix(9.2643281,0,0,9.2643281,766.04661,965.91891)"
         id="g1529"
         style="fill:#ffffff">
        <g
           style="fill:#ffffff"
           id="g1527">
          <g
             style="fill:#ffffff"
             id="g1525">
            <path
               style="fill:#ffffff"
               id="path1523"
               d="M 6.85,7.08 C 6.85,4.37 9.45,3 12.24,3 c 1.64,0 3,0.49 3.9,1.28 0.77,0.65 1.46,1.73 1.46,3.24 h -3.01 c 0,-0.31 -0.05,-0.59 -0.15,-0.85 -0.29,-0.86 -1.2,-1.28 -2.25,-1.28 -1.86,0 -2.34,1.02 -2.34,1.7 0,0.48 0.25,0.88 0.74,1.21 C 10.97,8.55 11.36,8.78 12,9 H 7.39 C 7.18,8.66 6.85,8.11 6.85,7.08 Z M 21,12 V 10 H 3 v 2 h 9.62 c 1.15,0.45 1.96,0.75 1.96,1.97 0,1 -0.81,1.67 -2.28,1.67 -1.54,0 -2.93,-0.54 -2.93,-2.51 H 6.4 c 0,0.55 0.08,1.13 0.24,1.58 0.81,2.29 3.29,3.3 5.67,3.3 2.27,0 5.3,-0.89 5.3,-4.05 0,-0.3 -0.01,-1.16 -0.48,-1.94 H 21 Z" />
          </g>
        </g>
      </g>
    </g>
    <g
       style="fill:#ffffff"
       id="g974">
      <rect
         style="opacity:0.0492754;fill:#ffffff;fill-opacity:1;stroke-width:11.2551;stroke-linecap:square;stop-color:#000000"
         id="rect1515"
         width="239.9073"
         height="239.9073"
         x="1077.718"
         y="943.28705"
         ry="20.299049" />
      <path
         id="path1531"
         d="m 1125.8253,1049.3349 c -7.6945,0 -13.9058,6.2113 -13.9058,13.9058 0,7.6945 6.2113,13.9057 13.9058,13.9057 7.6945,0 13.9057,-6.2112 13.9057,-13.9057 0,-7.6945 -6.2112,-13.9058 -13.9057,-13.9058 z m 0,-55.623 c -7.6945,0 -13.9058,6.21124 -13.9058,13.9058 0,7.6945 6.2113,13.9057 13.9058,13.9057 7.6945,0 13.9057,-6.2112 13.9057,-13.9057 0,-7.69456 -6.2112,-13.9058 -13.9057,-13.9058 z m 0,111.2461 c -7.6945,0 -13.9058,6.3039 -13.9058,13.9057 0,7.6018 6.3039,13.9058 13.9058,13.9058 7.6018,0 13.9057,-6.304 13.9057,-13.9058 0,-7.6018 -6.2112,-13.9057 -13.9057,-13.9057 z m 27.8115,23.1762 h 129.787 v -18.541 h -129.787 z m 0,-55.623 h 129.787 v -18.541 h -129.787 z m 0,-74.16404 v 18.54104 h 129.787 v -18.54104 z"
         style="fill:#ffffff;stroke-width:9.27051" />
    </g>
    <g
       style="fill:#ffffff"
       id="g946"
       inkscape:export-xdpi="96"
       inkscape:export-ydpi="96"
       transform="translate(16.928866)">
      <rect
         ry="20.299049"
         y="943.28705"
         x="1373.047"
         height="239.9073"
         width="239.9073"
         id="rect1533"
         style="opacity:0.0492754;fill:#ffffff;fill-opacity:1;stroke-width:11.2551;stroke-linecap:square;stop-color:#000000" />
      <path
         id="path1535"
         d="m 1470.705,1102.6867 -39.446,-39.446 39.446,-39.446 -12.0052,-12.0053 -51.4513,51.4513 51.4513,51.4513 z m 44.5912,0 39.446,-39.446 -39.446,-39.446 12.0052,-12.0053 51.4513,51.4513 -51.4513,51.4513 z"
         style="fill:#ffffff;stroke-width:8.57527" />
    </g>
    <g
       style="fill:#ffffff"
       id="g153"
       inkscape:export-xdpi="96"
       inkscape:export-ydpi="96">
      <rect
         ry="20.299049"
         y="335.44748"
         x="1702.2336"
         height="239.9073"
         width="239.9073"
         id="rect84"
         style="opacity:0.165217;fill:#ffffff;fill-opacity:1;stroke-width:11.2551;stroke-linecap:square;stop-color:#000000" />
      <path
         id="path98"
         d="m 1738.8362,455.40114 c 0,-17.59634 14.3035,-31.8998 31.8998,-31.8998 h 41.161 v -19.55149 h -41.161 c -28.4011,0 -51.4513,23.05018 -51.4513,51.45129 0,28.40111 23.0502,51.45128 51.4513,51.45128 h 41.161 v -19.55149 h -41.161 c -17.5963,0 -31.8998,-14.30345 -31.8998,-31.89979 z m 42.1901,10.29025 h 82.322 v -20.58051 h -82.322 z m 92.6123,-61.74154 h -41.161 v 19.55149 h 41.161 c 17.5963,0 31.8998,14.30346 31.8998,31.8998 0,17.59634 -14.3035,31.89979 -31.8998,31.89979 h -41.161 v 19.55149 h 41.161 c 28.4011,0 51.4513,-23.05017 51.4513,-51.45128 0,-28.40111 -23.0502,-51.45129 -51.4513,-51.45129 z"
         style="fill:#ffffff;stroke-width:10.2902" />
    </g>
    <g
       style="fill:#ffffff"
       id="g149"
       inkscape:export-xdpi="96"
       inkscape:export-ydpi="96">
      <rect
         style="opacity:0.0492754;fill:#ffffff;fill-opacity:1;stroke-width:11.2551;stroke-linecap:square;stop-color:#000000"
         id="rect90"
         width="239.9073"
         height="239.9073"
         x="1702.2336"
         y="943.28705"
         ry="20.299049" />
      <path
         style="fill:#ffffff;stroke-width:10.2902"
         d="m 1738.8362,1063.2407 c 0,-17.5963 14.3035,-31.8998 31.8998,-31.8998 h 41.161 v -19.5515 h -41.161 c -28.4011,0 -51.4513,23.0502 -51.4513,51.4513 0,28.4011 23.0502,51.4513 51.4513,51.4513 h 41.161 v -19.5515 h -41.161 c -17.5963,0 -31.8998,-14.3035 -31.8998,-31.8998 z m 42.1901,10.2903 h 82.322 v -20.5806 h -82.322 z m 92.6123,-61.7416 h -41.161 v 19.5515 h 41.161 c 17.5963,0 31.8998,14.3035 31.8998,31.8998 0,17.5963 -14.3035,31.8998 -31.8998,31.8998 h -41.161 v 19.5515 h 41.161 c 28.4011,0 51.4513,-23.0502 51.4513,-51.4513 0,-28.4011 -23.0502,-51.4513 -51.4513,-51.4513 z"
         id="path98-7" />
    </g>
    <g
       id="g963"
       style="fill:#ffffff"
       inkscape:export-xdpi="96"
       inkscape:export-ydpi="96">
      <rect
         ry="20.299049"
         y="943.28705"
         x="2007.454"
         height="239.9073"
         width="239.9073"
         id="rect929"
         style="opacity:0.0492754;fill:#ffffff;fill-opacity:1;stroke-width:11.2551;stroke-linecap:square;stop-color:#000000" />
      <path
         id="path919"
         d="m 2127.4076,993.71189 c -38.3954,0 -69.5288,31.13341 -69.5288,69.52881 0,38.3954 31.1334,69.5288 69.5288,69.5288 6.4121,0 11.5881,-5.176 11.5881,-11.5881 0,-3.0129 -1.1588,-5.7168 -3.0129,-7.8027 -1.7768,-2.0086 -2.9356,-4.7125 -2.9356,-7.6482 0,-6.4121 5.176,-11.5881 11.5881,-11.5881 h 13.674 c 21.3222,0 38.6271,-17.305 38.6271,-38.6271 0,-34.1464 -31.1334,-61.80341 -69.5288,-61.80341 z m -42.4898,69.52881 c -6.4121,0 -11.5882,-5.176 -11.5882,-11.5881 0,-6.4121 5.1761,-11.5882 11.5882,-11.5882 6.4121,0 11.5881,5.1761 11.5881,11.5882 0,6.4121 -5.176,11.5881 -11.5881,11.5881 z m 23.1762,-30.9017 c -6.4121,0 -11.5881,-5.176 -11.5881,-11.5881 0,-6.4121 5.176,-11.5882 11.5881,-11.5882 6.4122,0 11.5882,5.1761 11.5882,11.5882 0,6.4121 -5.176,11.5881 -11.5882,11.5881 z m 38.6272,0 c -6.4122,0 -11.5882,-5.176 -11.5882,-11.5881 0,-6.4121 5.176,-11.5882 11.5882,-11.5882 6.4121,0 11.5881,5.1761 11.5881,11.5882 0,6.4121 -5.176,11.5881 -11.5881,11.5881 z m 23.1762,30.9017 c -6.4121,0 -11.5881,-5.176 -11.5881,-11.5881 0,-6.4121 5.176,-11.5882 11.5881,-11.5882 6.4121,0 11.5882,5.1761 11.5882,11.5882 0,6.4121 -5.1761,11.5881 -11.5882,11.5881 z"
         style="fill:#ffffff;stroke-width:7.72542" />
    </g>
    <g
       id="g967"
       style="fill:#ffffff"
       inkscape:export-xdpi="96"
       inkscape:export-ydpi="96">
      <rect
         style="opacity:0.165217;fill:#ffffff;fill-opacity:1;stroke-width:11.2551;stroke-linecap:square;stop-color:#000000"
         id="rect981"
         width="239.9073"
         height="239.9073"
         x="2003.6686"
         y="335.44748"
         ry="20.299049" />
      <path
         style="fill:#ffffff;stroke-width:7.72542"
         d="m 2123.6222,385.87233 c -38.3954,0 -69.5288,31.13341 -69.5288,69.52881 0,38.3954 31.1334,69.5288 69.5288,69.5288 6.4121,0 11.5881,-5.176 11.5881,-11.5881 0,-3.0129 -1.1588,-5.7168 -3.0129,-7.8027 -1.7768,-2.0086 -2.9356,-4.7125 -2.9356,-7.6482 0,-6.4121 5.176,-11.5881 11.5881,-11.5881 h 13.674 c 21.3222,0 38.6271,-17.305 38.6271,-38.6271 0,-34.1464 -31.1334,-61.80341 -69.5288,-61.80341 z m -42.4898,69.52881 c -6.4121,0 -11.5882,-5.176 -11.5882,-11.5881 0,-6.4121 5.1761,-11.5882 11.5882,-11.5882 6.4121,0 11.5881,5.1761 11.5881,11.5882 0,6.4121 -5.176,11.5881 -11.5881,11.5881 z m 23.1762,-30.9017 c -6.4121,0 -11.5881,-5.176 -11.5881,-11.5881 0,-6.4121 5.176,-11.5882 11.5881,-11.5882 6.4122,0 11.5882,5.1761 11.5882,11.5882 0,6.4121 -5.176,11.5881 -11.5882,11.5881 z m 38.6272,0 c -6.4122,0 -11.5882,-5.176 -11.5882,-11.5881 0,-6.4121 5.176,-11.5882 11.5882,-11.5882 6.4121,0 11.5881,5.1761 11.5881,11.5882 0,6.4121 -5.176,11.5881 -11.5881,11.5881 z m 23.1762,30.9017 c -6.4121,0 -11.5881,-5.176 -11.5881,-11.5881 0,-6.4121 5.176,-11.5882 11.5881,-11.5882 6.4121,0 11.5882,5.1761 11.5882,11.5882 0,6.4121 -5.1761,11.5881 -11.5882,11.5881 z"
         id="path959" />
    </g>
    <g
       id="g949"
       inkscape:export-xdpi="96"
       inkscape:export-ydpi="96">
      <rect
         ry="20.299049"
         y="335.44748"
         x="2314.3887"
         height="239.9073"
         width="239.9073"
         id="rect934"
         style="opacity:0.165217;fill:#ffffff;fill-opacity:1;stroke-width:11.2551;stroke-linecap:square;stop-color:#000000" />
      <path
         style="fill:#ffffff;stroke-width:0.198438"
         d="M 2503.8711,509.47906 V 401.3232 c 0,-8.49796 -6.9528,-15.45084 -15.4508,-15.45084 h -108.1558 c -8.498,0 -15.4509,6.95288 -15.4509,15.45084 v 108.15586 c 0,8.49796 6.9529,15.45084 15.4509,15.45084 h 108.1558 c 8.498,0 15.4508,-6.95288 15.4508,-15.45084 z m -96.5677,-42.4898 19.3136,23.25351 27.0389,-34.84164 34.7644,46.35251 h -108.1558 z"
         id="path919-4" />
    </g>
    <g
       id="g953"
       inkscape:export-xdpi="96"
       inkscape:export-ydpi="96">
      <rect
         style="opacity:0.0492754;fill:#ffffff;fill-opacity:1;stroke-width:11.2551;stroke-linecap:square;stop-color:#000000"
         id="rect927"
         width="239.9073"
         height="239.9073"
         x="2318.1741"
         y="943.28705"
         ry="20.299049" />
      <path
         id="path945"
         d="m 2507.6565,1117.3186 v -108.1558 c 0,-8.498 -6.9528,-15.45087 -15.4508,-15.45087 h -108.1558 c -8.498,0 -15.4509,6.95287 -15.4509,15.45087 v 108.1558 c 0,8.498 6.9529,15.4509 15.4509,15.4509 h 108.1558 c 8.498,0 15.4508,-6.9529 15.4508,-15.4509 z m -96.5677,-42.4898 19.3136,23.2535 27.0389,-34.8416 34.7644,46.3525 h -108.1558 z"
         style="fill:#ffffff;stroke-width:0.198438" />
    </g>
  </g>
</svg>
