<?xml version="1.0" encoding="UTF-8" standalone="no"?>
<svg
   xmlns:dc="http://purl.org/dc/elements/1.1/"
   xmlns:cc="http://creativecommons.org/ns#"
   xmlns:rdf="http://www.w3.org/1999/02/22-rdf-syntax-ns#"
   xmlns:svg="http://www.w3.org/2000/svg"
   xmlns="http://www.w3.org/2000/svg"
   xmlns:sodipodi="http://sodipodi.sourceforge.net/DTD/sodipodi-0.dtd"
   xmlns:inkscape="http://www.inkscape.org/namespaces/inkscape"
   width="1881.0403mm"
   height="1224.3639mm"
   viewBox="0 0 1881.0403 1224.3639"
   version="1.1"
   id="svg8"
   inkscape:version="1.0 (4035a4fb49, 2020-05-01)"
   sodipodi:docname="iconset.svg">
  <defs
     id="defs2" />
  <sodipodi:namedview
     id="base"
     pagecolor="#ffffff"
     bordercolor="#666666"
     borderopacity="1.0"
     inkscape:pageopacity="0.0"
     inkscape:pageshadow="2"
     inkscape:zoom="0.065815151"
     inkscape:cx="509.12831"
     inkscape:cy="2435.8101"
     inkscape:document-units="mm"
     inkscape:current-layer="layer1"
     inkscape:document-rotation="0"
     showgrid="false"
     inkscape:showpageshadow="false"
     showborder="false" />
  <metadata
     id="metadata5">
    <rdf:RDF>
      <cc:Work
         rdf:about="">
        <dc:format>image/svg+xml</dc:format>
        <dc:type
           rdf:resource="http://purl.org/dc/dcmitype/StillImage" />
        <dc:title />
      </cc:Work>
    </rdf:RDF>
  </metadata>
  <g
     transform="translate(217.34192,-7.6067095)"
     inkscape:label="Layer 1"
     inkscape:groupmode="layer"
     id="layer1">
    <rect
       ry="12.076857"
       y="7.6067095"
       x="-217.34192"
       height="1224.3639"
       width="1881.0403"
       id="rect989"
       style="opacity:1;fill:none;fill-opacity:1;stroke-width:5.28683;stroke-linecap:square;stop-color:#000000" />
    <g
       inkscape:export-ydpi="96"
       inkscape:export-xdpi="96"
       id="g1115">
      <rect
         ry="20.299047"
         y="50.566853"
         x="-171.3132"
         height="239.9073"
         width="239.9073"
         id="rect847"
         style="opacity:0.165217;fill:#000000;fill-opacity:1;stroke-width:11.2551;stroke-linecap:square;stop-color:#000000" />
      <text
         id="text835"
         y="258.83694"
         x="-155.20903"
         style="font-style:normal;font-variant:normal;font-weight:normal;font-stretch:normal;font-size:302.968px;line-height:1.25;font-family:'Segoe UI';-inkscape-font-specification:'Segoe UI';stroke-width:7.57421"
         xml:space="preserve"><tspan
           style="font-style:normal;font-variant:normal;font-weight:normal;font-stretch:normal;font-family:'Segoe UI';-inkscape-font-specification:'Segoe UI';stroke-width:7.57421"
           y="258.83694"
           x="-155.20903"
           id="tspan833"
           sodipodi:role="line">+</tspan></text>
    </g>
    <g
       inkscape:export-ydpi="96"
       inkscape:export-xdpi="96"
       id="g1119"
       transform="translate(-3.1652959)">
      <rect
         style="opacity:0.165217;fill:#000000;fill-opacity:1;stroke-width:11.2551;stroke-linecap:square;stop-color:#000000"
         id="rect855"
         width="239.9073"
         height="239.9073"
         x="141.37811"
         y="50.566845"
         ry="20.299049" />
      <path
         id="path863"
         d="m 299.95885,100.99172 h -92.70504 c -8.57522,0 -15.45084,6.95287 -15.45084,15.45083 v 108.15589 c 0,8.49797 6.87562,15.45084 15.45084,15.45084 h 108.15588 c 8.49798,0 15.45086,-6.95287 15.45086,-15.45084 v -92.70505 z m -38.62709,123.60672 c -12.8242,0 -23.17627,-10.35205 -23.17627,-23.17626 0,-12.8242 10.35207,-23.17626 23.17627,-23.17626 12.82419,0 23.17625,10.35206 23.17625,23.17626 0,12.82421 -10.35206,23.17626 -23.17625,23.17626 z m 23.17625,-77.25421 h -77.2542 v -30.90168 h 77.2542 z"
         style="fill:#000000;stroke-width:7.72543" />
    </g>
    <g
       inkscape:export-ydpi="96"
       inkscape:export-xdpi="96"
       id="g1123"
       transform="translate(1.4063924)">
      <rect
         ry="20.299049"
         y="50.566845"
         x="446.33243"
         height="239.9073"
         width="239.9073"
         id="rect917"
         style="opacity:0.165217;fill:#000000;fill-opacity:1;stroke-width:11.2551;stroke-linecap:square;stop-color:#000000" />
      <path
         id="path923"
         d="M 620.36403,224.59844 H 512.20813 V 116.44257 h 54.07795 v -15.45085 h -54.07795 c -8.57522,0 -15.45085,6.95288 -15.45085,15.45085 v 108.15587 c 0,8.49797 6.87563,15.45084 15.45085,15.45084 h 108.1559 c 8.49797,0 15.45085,-6.95287 15.45085,-15.45084 V 170.5205 H 620.36403 Z M 581.73692,100.99172 v 15.45085 h 27.73427 l -75.9409,75.94087 10.89285,10.89284 75.94089,-75.94088 v 27.73426 h 15.45085 v -54.07794 z"
         style="fill:#000000;stroke-width:7.72542" />
    </g>
    <g
       inkscape:export-ydpi="96"
       inkscape:export-xdpi="96"
       id="g1127"
       transform="translate(3.1652791)">
      <rect
         style="opacity:0.165217;fill:#000000;fill-opacity:1;stroke-width:11.2551;stroke-linecap:square;stop-color:#000000"
         id="rect953"
         width="239.9073"
         height="239.9073"
         x="754.09961"
         y="50.566853"
         ry="20.299047" />
      <path
         id="path969"
         d="M 804.52448,216.87303 H 943.58205 V 201.42219 H 804.52448 Z m 0,-38.62711 H 943.58205 V 162.79509 H 804.52448 Z m 0,-54.07794 v 15.45084 h 139.05757 v -15.45084 z"
         style="fill:#000000;stroke-width:7.72542" />
    </g>
    <g
       inkscape:export-ydpi="96"
       inkscape:export-xdpi="96"
       id="g958">
      <rect
         ry="20.299049"
         y="50.566845"
         x="1066.791"
         height="239.9073"
         width="239.9073"
         id="rect959"
         style="opacity:1;fill:#e81123;fill-opacity:1;stroke-width:11.2551;stroke-linecap:square;stop-color:#000000" />
      <path
         id="path1015"
         d="m 1256.2734,114.9968 -14.0051,-14.00508 -55.5237,55.5237 -55.5237,-55.5237 -14.005,14.00508 55.5236,55.5237 -55.5236,55.5237 14.005,14.00508 55.5237,-55.5237 55.5237,55.5237 14.0051,-14.00508 -55.5237,-55.5237 z"
         style="fill:#000000;stroke-width:9.93269" />
    </g>
    <g
       inkscape:export-ydpi="96"
       inkscape:export-xdpi="96"
       id="g985"
       style="fill:#ffffff">
      <rect
         style="opacity:0.165217;fill:#ffffff;fill-opacity:1;stroke-width:11.2551;stroke-linecap:square;stop-color:#000000"
         id="rect1133"
         width="239.9073"
         height="239.9073"
         x="-171.3132"
         y="335.44748"
         ry="20.299047" />
      <path
         id="path1167"
         d="m -19.326653,453.31527 c 9.6347,-6.6549 16.38893,-17.58085 16.38893,-27.71219 0,-22.44786 -17.38219,-39.73073 -39.73073,-39.73073 h -62.079267 v 139.05756 h 69.926087 c 20.75931,0 36.85025,-16.88556 36.85025,-37.64487 0,-15.09768 -8.54211,-28.01016 -21.35527,-33.96977 z m -55.623015,-42.61121 h 29.798045 c 8.24413,0 14.89902,6.65489 14.89902,14.89902 0,8.24413 -6.65489,14.89902 -14.89902,14.89902 h -29.798045 z m 34.764385,89.39414 h -34.764385 v -29.79804 h 34.764385 c 8.24412,0 14.89903,6.65489 14.89903,14.89902 0,8.24413 -6.65491,14.89902 -14.89903,14.89902 z"
         style="fill:#ffffff;stroke-width:9.93266"
         inkscape:export-xdpi="96"
         inkscape:export-ydpi="96" />
    </g>
    <g
       transform="translate(2.7318265)"
       inkscape:export-ydpi="96"
       inkscape:export-xdpi="96"
       id="g962"
       style="fill:#ffffff">
      <rect
         ry="20.299049"
         y="335.44748"
         x="138.21281"
         height="239.9073"
         width="239.9073"
         id="rect1141"
         style="opacity:0.165217;fill:#ffffff;fill-opacity:1;stroke-width:11.2551;stroke-linecap:square;stop-color:#000000" />
      <path
         id="path1225"
         d="m 238.3011,385.87235 v 29.79805 h 21.95123 l -33.96978,79.46147 h -27.71219 v 29.79805 h 79.46147 V 495.13187 H 256.0806 l 33.96978,-79.46147 h 27.71219 v -29.79805 z"
         style="fill:#ffffff;stroke-width:9.93271" />
    </g>
    <g
       transform="translate(5.4635915)"
       inkscape:export-ydpi="96"
       inkscape:export-xdpi="96"
       id="g966"
       style="fill:#ffffff">
      <rect
         style="opacity:0.165217;fill:#ffffff;fill-opacity:1;stroke-width:11.2551;stroke-linecap:square;stop-color:#000000"
         id="rect1147"
         width="239.9073"
         height="239.9073"
         x="447.73883"
         y="335.44748"
         ry="20.299049" />
      <path
         id="path1265"
         d="m 567.69248,498.79616 c 26.46772,0 47.97773,-21.51002 47.97773,-47.97771 V 386.84813 H 595.6795 v 63.97032 c 0,15.43283 -12.55419,27.98699 -27.98702,27.98699 -15.43283,0 -27.98701,-12.55416 -27.98701,-27.98699 v -63.97032 h -19.99071 v 63.97032 c 0,26.46769 21.51001,47.97771 47.97772,47.97771 z m -55.97402,15.99258 v 15.99258 h 111.94805 v -15.99258 z"
         style="fill:#ffffff;stroke-width:7.99629" />
    </g>
    <g
       transform="translate(8.195343)"
       inkscape:export-ydpi="96"
       inkscape:export-xdpi="96"
       id="g973"
       style="fill:#ffffff">
      <rect
         ry="20.299047"
         y="335.44748"
         x="757.26489"
         height="239.9073"
         width="239.9073"
         id="rect1153"
         style="opacity:0.165217;fill:#ffffff;fill-opacity:1;stroke-width:11.2551;stroke-linecap:square;stop-color:#000000" />
      <g
         transform="matrix(9.2643281,0,0,9.2643281,766.04661,358.07936)"
         id="g1305"
         style="fill:#ffffff">
        <g
           id="g1303"
           style="fill:#ffffff">
          <g
             id="g1301"
             style="fill:#ffffff">
            <path
               id="path1299"
               d="M 6.85,7.08 C 6.85,4.37 9.45,3 12.24,3 c 1.64,0 3,0.49 3.9,1.28 0.77,0.65 1.46,1.73 1.46,3.24 h -3.01 c 0,-0.31 -0.05,-0.59 -0.15,-0.85 -0.29,-0.86 -1.2,-1.28 -2.25,-1.28 -1.86,0 -2.34,1.02 -2.34,1.7 0,0.48 0.25,0.88 0.74,1.21 C 10.97,8.55 11.36,8.78 12,9 H 7.39 C 7.18,8.66 6.85,8.11 6.85,7.08 Z M 21,12 V 10 H 3 v 2 h 9.62 c 1.15,0.45 1.96,0.75 1.96,1.97 0,1 -0.81,1.67 -2.28,1.67 -1.54,0 -2.93,-0.54 -2.93,-2.51 H 6.4 c 0,0.55 0.08,1.13 0.24,1.58 0.81,2.29 3.29,3.3 5.67,3.3 2.27,0 5.3,-0.89 5.3,-4.05 0,-0.3 -0.01,-1.16 -0.48,-1.94 H 21 Z"
               style="fill:#ffffff" />
          </g>
        </g>
      </g>
    </g>
    <g
       transform="translate(10.927033)"
       inkscape:export-ydpi="96"
       inkscape:export-xdpi="96"
       id="g977"
       style="fill:#ffffff">
      <rect
         style="opacity:0.165217;fill:#ffffff;fill-opacity:1;stroke-width:11.2551;stroke-linecap:square;stop-color:#000000"
         id="rect1159"
         width="239.9073"
         height="239.9073"
         x="1066.791"
         y="335.44748"
         ry="20.299049" />
      <path
         id="path1393"
         d="m 1114.8983,441.49538 c -7.6945,0 -13.9058,6.21124 -13.9058,13.90576 0,7.69451 6.2113,13.90575 13.9058,13.90575 7.6945,0 13.9057,-6.21124 13.9057,-13.90575 0,-7.69452 -6.2112,-13.90576 -13.9057,-13.90576 z m 0,-55.62303 c -7.6945,0 -13.9058,6.21124 -13.9058,13.90576 0,7.69452 6.2113,13.90575 13.9058,13.90575 7.6945,0 13.9057,-6.21123 13.9057,-13.90575 0,-7.69452 -6.2112,-13.90576 -13.9057,-13.90576 z m 0,111.24606 c -7.6945,0 -13.9058,6.30394 -13.9058,13.90575 0,7.60181 6.3039,13.90576 13.9058,13.90576 7.6018,0 13.9057,-6.30395 13.9057,-13.90576 0,-7.60181 -6.2112,-13.90575 -13.9057,-13.90575 z m 27.8115,23.17626 h 129.787 v -18.54101 h -129.787 z m 0,-55.62303 h 129.787 v -18.54101 h -129.787 z m 0,-74.16403 v 18.54101 h 129.787 v -18.54101 z"
         style="fill:#ffffff;stroke-width:9.27051" />
    </g>
    <g
       transform="translate(16.928866)"
       inkscape:export-ydpi="96"
       inkscape:export-xdpi="96"
       id="g981"
       style="fill:#ffffff">
      <rect
         ry="20.299049"
         y="335.44748"
         x="1373.047"
         height="239.9073"
         width="239.9073"
         id="rect1425"
         style="opacity:0.165217;fill:#ffffff;fill-opacity:1;stroke-width:11.2551;stroke-linecap:square;stop-color:#000000" />
      <path
         id="path1431"
         d="m 1470.705,494.84712 -39.446,-39.44599 39.446,-39.44599 -12.0052,-12.0053 -51.4513,51.45129 51.4513,51.45129 z m 44.5912,0 39.446,-39.44599 -39.446,-39.44599 12.0052,-12.0053 51.4513,51.45129 -51.4513,51.45129 z"
         style="fill:#ffffff;stroke-width:8.57527" />
    </g>
    <g
       inkscape:export-ydpi="96"
       inkscape:export-xdpi="96"
       id="g903">
      <rect
         style="opacity:0.0492754;fill:#000000;fill-opacity:1;stroke-width:11.2551;stroke-linecap:square;stop-color:#000000"
         id="rect1475"
         width="239.9073"
         height="239.9073"
         x="-171.3132"
         y="658.40637"
         ry="20.299047" />
      <text
         xml:space="preserve"
         style="font-style:normal;font-variant:normal;font-weight:normal;font-stretch:normal;font-size:302.968px;line-height:1.25;font-family:'Segoe UI';-inkscape-font-specification:'Segoe UI';stroke-width:7.57421"
         x="-155.20903"
         y="866.67651"
         id="text1479"><tspan
           sodipodi:role="line"
           id="tspan1477"
           x="-155.20903"
           y="866.67651"
           style="font-style:normal;font-variant:normal;font-weight:normal;font-stretch:normal;font-family:'Segoe UI';-inkscape-font-specification:'Segoe UI';stroke-width:7.57421">+</tspan></text>
    </g>
    <g
       inkscape:export-ydpi="96"
       inkscape:export-xdpi="96"
       id="g907">
      <rect
         ry="20.299049"
         y="658.40637"
         x="138.21281"
         height="239.9073"
         width="239.9073"
         id="rect1483"
         style="opacity:0.0492754;fill:#000000;fill-opacity:1;stroke-width:11.2551;stroke-linecap:square;stop-color:#000000" />
      <path
         style="fill:#000000;stroke-width:7.72543"
         d="m 296.79355,708.83127 h -92.70504 c -8.57522,0 -15.45084,6.95287 -15.45084,15.45083 v 108.15589 c 0,8.49797 6.87562,15.45084 15.45084,15.45084 h 108.15588 c 8.49798,0 15.45086,-6.95287 15.45086,-15.45084 v -92.70505 z m -38.62709,123.60672 c -12.8242,0 -23.17627,-10.35205 -23.17627,-23.17626 0,-12.8242 10.35207,-23.17626 23.17627,-23.17626 12.82419,0 23.17625,10.35206 23.17625,23.17626 0,12.82421 -10.35206,23.17626 -23.17625,23.17626 z m 23.17625,-77.25421 h -77.2542 V 724.2821 h 77.2542 z"
         id="path1485" />
    </g>
    <g
       inkscape:export-ydpi="96"
       inkscape:export-xdpi="96"
       id="g911">
      <rect
         style="opacity:0.0492754;fill:#000000;fill-opacity:1;stroke-width:11.2551;stroke-linecap:square;stop-color:#000000"
         id="rect1489"
         width="239.9073"
         height="239.9073"
         x="447.73883"
         y="658.40637"
         ry="20.299049" />
      <path
         style="fill:#000000;stroke-width:7.72542"
         d="M 621.77042,832.43799 H 513.61452 V 724.28212 h 54.07795 v -15.45085 h -54.07795 c -8.57522,0 -15.45085,6.95288 -15.45085,15.45085 v 108.15587 c 0,8.49797 6.87563,15.45084 15.45085,15.45084 h 108.1559 c 8.49797,0 15.45085,-6.95287 15.45085,-15.45084 V 778.36005 H 621.77042 Z M 583.14331,708.83127 v 15.45085 h 27.73427 l -75.9409,75.94087 10.89285,10.89284 75.94089,-75.94088 v 27.73426 h 15.45085 v -54.07794 z"
         id="path1491" />
    </g>
    <g
       inkscape:export-ydpi="96"
       inkscape:export-xdpi="96"
       id="g915">
      <rect
         ry="20.299047"
         y="658.40637"
         x="757.26489"
         height="239.9073"
         width="239.9073"
         id="rect1495"
         style="opacity:0.0492754;fill:#000000;fill-opacity:1;stroke-width:11.2551;stroke-linecap:square;stop-color:#000000" />
      <path
         style="fill:#000000;stroke-width:7.72542"
         d="M 807.68976,824.71258 H 946.74733 V 809.26174 H 807.68976 Z m 0,-38.62711 H 946.74733 V 770.63464 H 807.68976 Z m 0,-54.07794 v 15.45084 h 139.05757 v -15.45084 z"
         id="path1497" />
    </g>
    <g
       inkscape:export-ydpi="96"
       inkscape:export-xdpi="96"
       id="g952">
      <rect
         style="opacity:0.0492754;fill:#000000;fill-opacity:1;stroke-width:11.2551;stroke-linecap:square;stop-color:#000000"
         id="rect1501"
         width="239.9073"
         height="239.9073"
         x="1066.791"
         y="658.40637"
         ry="20.299049" />
      <path
         style="fill:#000000;stroke-width:9.93269"
         d="m 1256.2734,722.83635 -14.0051,-14.00508 -55.5237,55.5237 -55.5237,-55.5237 -14.005,14.00508 55.5236,55.5237 -55.5236,55.5237 14.005,14.00508 55.5237,-55.5237 55.5237,55.5237 14.0051,-14.00508 -55.5237,-55.5237 z"
         id="path1503" />
    </g>
    <g
       inkscape:export-ydpi="96"
       inkscape:export-xdpi="96"
       id="g923"
       style="fill:#ffffff">
      <rect
         ry="20.299047"
         y="943.28705"
         x="-171.3132"
         height="239.9073"
         width="239.9073"
         id="rect1507"
         style="opacity:0.0492754;fill:#ffffff;fill-opacity:1;stroke-width:11.2551;stroke-linecap:square;stop-color:#000000" />
      <path
         style="fill:#ffffff;stroke-width:9.93266"
         d="m -19.326653,1061.1548 c 9.6347,-6.6549 16.38893,-17.5808 16.38893,-27.7122 0,-22.4478 -17.38219,-39.7307 -39.73073,-39.7307 h -62.079267 v 139.0576 h 69.926087 c 20.75931,0 36.85025,-16.8856 36.85025,-37.6449 0,-15.0977 -8.54211,-28.0102 -21.35527,-33.9698 z m -55.623015,-42.6112 h 29.798045 c 8.24413,0 14.89902,6.6549 14.89902,14.899 0,8.2442 -6.65489,14.899 -14.89902,14.899 h -29.798045 z m 34.764385,89.3941 h -34.764385 v -29.798 h 34.764385 c 8.24412,0 14.89903,6.6549 14.89903,14.899 0,8.2442 -6.65491,14.899 -14.89903,14.899 z"
         id="path1517" />
    </g>
    <g
       transform="translate(2.7318265)"
       inkscape:export-ydpi="96"
       inkscape:export-xdpi="96"
       id="g927"
       style="fill:#ffffff">
      <rect
         style="opacity:0.0492754;fill:#ffffff;fill-opacity:1;stroke-width:11.2551;stroke-linecap:square;stop-color:#000000"
         id="rect1509"
         width="239.9073"
         height="239.9073"
         x="138.21281"
         y="943.28705"
         ry="20.299049" />
      <path
         style="fill:#ffffff;stroke-width:9.93271"
         d="m 238.3011,993.7119 v 29.798 h 21.95123 l -33.96978,79.4615 h -27.71219 v 29.7981 h 79.46147 v -29.7981 H 256.0806 l 33.96978,-79.4615 h 27.71219 v -29.798 z"
         id="path1519" />
    </g>
    <g
       transform="translate(5.4635915)"
       inkscape:export-ydpi="96"
       inkscape:export-xdpi="96"
       id="g931"
       style="fill:#ffffff">
      <rect
         ry="20.299049"
         y="943.28705"
         x="447.73883"
         height="239.9073"
         width="239.9073"
         id="rect1511"
         style="opacity:0.0492754;fill:#ffffff;fill-opacity:1;stroke-width:11.2551;stroke-linecap:square;stop-color:#000000" />
      <path
         style="fill:#ffffff;stroke-width:7.99629"
         d="m 567.69248,1106.6357 c 26.46772,0 47.97773,-21.51 47.97773,-47.9777 V 994.68768 H 595.6795 v 63.97032 c 0,15.4328 -12.55419,27.987 -27.98702,27.987 -15.43283,0 -27.98701,-12.5542 -27.98701,-27.987 v -63.97032 h -19.99071 v 63.97032 c 0,26.4677 21.51001,47.9777 47.97772,47.9777 z m -55.97402,15.9926 v 15.9926 h 111.94805 v -15.9926 z"
         id="path1521" />
    </g>
    <g
       transform="translate(8.195343)"
       inkscape:export-ydpi="96"
       inkscape:export-xdpi="96"
       id="g938"
       style="fill:#ffffff">
      <rect
         style="opacity:0.0492754;fill:#ffffff;fill-opacity:1;stroke-width:11.2551;stroke-linecap:square;stop-color:#000000"
         id="rect1513"
         width="239.9073"
         height="239.9073"
         x="757.26489"
         y="943.28705"
         ry="20.299047" />
      <g
         style="fill:#ffffff"
         id="g1529"
         transform="matrix(9.2643281,0,0,9.2643281,766.04661,965.91891)">
        <g
           id="g1527"
           style="fill:#ffffff">
          <g
             id="g1525"
             style="fill:#ffffff">
            <path
               d="M 6.85,7.08 C 6.85,4.37 9.45,3 12.24,3 c 1.64,0 3,0.49 3.9,1.28 0.77,0.65 1.46,1.73 1.46,3.24 h -3.01 c 0,-0.31 -0.05,-0.59 -0.15,-0.85 -0.29,-0.86 -1.2,-1.28 -2.25,-1.28 -1.86,0 -2.34,1.02 -2.34,1.7 0,0.48 0.25,0.88 0.74,1.21 C 10.97,8.55 11.36,8.78 12,9 H 7.39 C 7.18,8.66 6.85,8.11 6.85,7.08 Z M 21,12 V 10 H 3 v 2 h 9.62 c 1.15,0.45 1.96,0.75 1.96,1.97 0,1 -0.81,1.67 -2.28,1.67 -1.54,0 -2.93,-0.54 -2.93,-2.51 H 6.4 c 0,0.55 0.08,1.13 0.24,1.58 0.81,2.29 3.29,3.3 5.67,3.3 2.27,0 5.3,-0.89 5.3,-4.05 0,-0.3 -0.01,-1.16 -0.48,-1.94 H 21 Z"
               id="path1523"
               style="fill:#ffffff" />
          </g>
        </g>
      </g>
    </g>
    <g
       transform="translate(10.927033)"
       inkscape:export-ydpi="96"
       inkscape:export-xdpi="96"
       id="g942"
       style="fill:#ffffff">
      <rect
         ry="20.299049"
         y="943.28705"
         x="1066.791"
         height="239.9073"
         width="239.9073"
         id="rect1515"
         style="opacity:0.0492754;fill:#ffffff;fill-opacity:1;stroke-width:11.2551;stroke-linecap:square;stop-color:#000000" />
      <path
         style="fill:#ffffff;stroke-width:9.27051"
         d="m 1114.8983,1049.3349 c -7.6945,0 -13.9058,6.2113 -13.9058,13.9058 0,7.6945 6.2113,13.9057 13.9058,13.9057 7.6945,0 13.9057,-6.2112 13.9057,-13.9057 0,-7.6945 -6.2112,-13.9058 -13.9057,-13.9058 z m 0,-55.623 c -7.6945,0 -13.9058,6.21124 -13.9058,13.9058 0,7.6945 6.2113,13.9057 13.9058,13.9057 7.6945,0 13.9057,-6.2112 13.9057,-13.9057 0,-7.69456 -6.2112,-13.9058 -13.9057,-13.9058 z m 0,111.2461 c -7.6945,0 -13.9058,6.3039 -13.9058,13.9057 0,7.6018 6.3039,13.9058 13.9058,13.9058 7.6018,0 13.9057,-6.304 13.9057,-13.9058 0,-7.6018 -6.2112,-13.9057 -13.9057,-13.9057 z m 27.8115,23.1762 h 129.787 v -18.541 h -129.787 z m 0,-55.623 h 129.787 v -18.541 h -129.787 z m 0,-74.16404 v 18.54104 h 129.787 v -18.54104 z"
         id="path1531" />
    </g>
    <g
       transform="translate(16.928866)"
       inkscape:export-ydpi="96"
       inkscape:export-xdpi="96"
       id="g946"
       style="fill:#ffffff">
      <rect
         style="opacity:0.0492754;fill:#ffffff;fill-opacity:1;stroke-width:11.2551;stroke-linecap:square;stop-color:#000000"
         id="rect1533"
         width="239.9073"
         height="239.9073"
         x="1373.047"
         y="943.28705"
         ry="20.299049" />
      <path
         style="fill:#ffffff;stroke-width:8.57527"
         d="m 1470.705,1102.6867 -39.446,-39.446 39.446,-39.446 -12.0052,-12.0053 -51.4513,51.4513 51.4513,51.4513 z m 44.5912,0 39.446,-39.446 -39.446,-39.446 12.0052,-12.0053 51.4513,51.4513 -51.4513,51.4513 z"
         id="path1535" />
    </g>
    <g
       inkscape:export-ydpi="96"
       inkscape:export-xdpi="96"
       id="g153">
      <rect
         style="opacity:0.165217;fill:#ffffff;fill-opacity:1;stroke-width:11.2551;stroke-linecap:square;stop-color:#000000"
         id="rect84"
         width="239.9073"
         height="239.9073"
         x="1702.2336"
         y="335.44748"
         ry="20.299049" />
      <path
         style="fill:#ffffff;stroke-width:10.2902"
         d="m 1738.8362,455.40114 c 0,-17.59634 14.3035,-31.8998 31.8998,-31.8998 h 41.161 v -19.55149 h -41.161 c -28.4011,0 -51.4513,23.05018 -51.4513,51.45129 0,28.40111 23.0502,51.45128 51.4513,51.45128 h 41.161 v -19.55149 h -41.161 c -17.5963,0 -31.8998,-14.30345 -31.8998,-31.89979 z m 42.1901,10.29025 h 82.322 v -20.58051 h -82.322 z m 92.6123,-61.74154 h -41.161 v 19.55149 h 41.161 c 17.5963,0 31.8998,14.30346 31.8998,31.8998 0,17.59634 -14.3035,31.89979 -31.8998,31.89979 h -41.161 v 19.55149 h 41.161 c 28.4011,0 51.4513,-23.05017 51.4513,-51.45128 0,-28.40111 -23.0502,-51.45129 -51.4513,-51.45129 z"
         id="path98" />
    </g>
    <g
       inkscape:export-ydpi="96"
       inkscape:export-xdpi="96"
       id="g149">
      <rect
         ry="20.299049"
         y="943.28705"
         x="1702.2336"
         height="239.9073"
         width="239.9073"
         id="rect90"
         style="opacity:0.0492754;fill:#ffffff;fill-opacity:1;stroke-width:11.2551;stroke-linecap:square;stop-color:#000000" />
      <path
         id="path98-7"
         d="m 1738.8362,1063.2407 c 0,-17.5963 14.3035,-31.8998 31.8998,-31.8998 h 41.161 v -19.5515 h -41.161 c -28.4011,0 -51.4513,23.0502 -51.4513,51.4513 0,28.4011 23.0502,51.4513 51.4513,51.4513 h 41.161 v -19.5515 h -41.161 c -17.5963,0 -31.8998,-14.3035 -31.8998,-31.8998 z m 42.1901,10.2903 h 82.322 v -20.5806 h -82.322 z m 92.6123,-61.7416 h -41.161 v 19.5515 h 41.161 c 17.5963,0 31.8998,14.3035 31.8998,31.8998 0,17.5963 -14.3035,31.8998 -31.8998,31.8998 h -41.161 v 19.5515 h 41.161 c 28.4011,0 51.4513,-23.0502 51.4513,-51.4513 0,-28.4011 -23.0502,-51.4513 -51.4513,-51.4513 z"
         style="fill:#ffffff;stroke-width:10.2902" />
    </g>
  </g>
</svg>
